<svg width="60" height="60" viewBox="0 0 60 60" fill="none" xmlns="http://www.w3.org/2000/svg">
<rect width="60" height="60" rx="30" fill="#EFF3FD"/>
<path fill-rule="evenodd" clip-rule="evenodd" d="M38.6216 26.6542V22.8596C38.6216 18.0486 34.7536 14 29.858 14C24.9623 14 20.8346 18.0486 20.8346 22.8596V26.6542C19.2874 26.6542 18 27.919 18 29.438V36.2704C18 41.0813 21.868 45.13 26.7636 45.13H32.6926C37.5882 45.13 41.7159 41.0813 41.7159 36.2704V29.438C41.7159 27.919 40.4285 26.6542 38.6216 26.6542ZM22.8956 22.8596C22.8956 19.065 25.99 16.0271 29.858 16.0271C33.7259 16.0271 36.8203 19.065 36.8203 22.8596V26.6542H34.7593V22.8596C34.7593 20.0758 32.4385 17.8002 29.8636 17.8002C27.029 17.8002 24.968 20.0758 24.968 22.8596V26.6542H22.9069V22.8596H22.8956ZM33.7203 22.8596V26.6542H25.9844V22.8596C25.9844 20.584 27.5316 18.8109 29.8523 18.8109C31.9134 18.8109 33.7203 20.584 33.7203 22.8596ZM39.6493 32.4758V36.2704C39.6493 40.065 36.5549 43.1029 32.6869 43.1029H26.758C23.1497 43.1029 20.0554 40.065 20.0554 36.2704V29.438C20.0554 28.9298 20.3151 28.6813 20.829 28.6813H38.6159C39.3895 28.6813 39.6493 28.9354 39.6493 29.438V32.4758Z" fill="#3969CD"/>
<path fill-rule="evenodd" clip-rule="evenodd" d="M29.8498 32.5273C28.7374 32.5273 27.625 33.3009 27.625 34.5884C27.625 35.1022 27.9017 36.1356 28.4607 37.1689C28.7374 37.9425 29.0141 38.4563 29.8498 38.4563C30.6855 38.4563 30.9622 37.9425 31.2389 37.1689C31.5155 36.1356 32.0746 35.1079 32.0746 34.5884C32.0746 33.3009 30.9622 32.5273 29.8498 32.5273Z" fill="#3969CD"/>
</svg>
