<svg width="60" height="60" viewBox="0 0 60 60" fill="none" xmlns="http://www.w3.org/2000/svg">
<rect width="60" height="60" rx="30" fill="#EFF3FD"/>
<path fill-rule="evenodd" clip-rule="evenodd" d="M41.7797 42H18.2203C17.509 42 17 41.486 17 40.7701V20.2299C17 19.5079 17.509 19 18.2203 19H41.7797C42.491 19 43 19.514 43 20.2299V40.7701C43 41.4921 42.491 42 41.7797 42ZM36.9047 40.7701H41.7797V30.087H36.9047V40.7701ZM24.3094 40.7701H35.6844V30.087H24.3094V40.7701ZM18.2141 40.7701H23.0891V30.087H18.2141V40.7701ZM19.4344 20.2299C18.7231 20.2299 18.2141 20.7438 18.2141 21.4597C18.2141 22.1756 18.7231 22.6896 19.4344 22.6896C20.1458 22.6896 20.6547 22.1756 20.6547 21.4597C20.6547 20.7438 20.1458 20.2299 19.4344 20.2299ZM23.0891 20.2299C22.3778 20.2299 21.8689 20.7438 21.8689 21.4597C21.8689 22.1756 22.3778 22.6896 23.0891 22.6896C23.8005 22.6896 24.3094 22.1756 24.3094 21.4597C24.3094 20.7438 23.8005 20.2299 23.0891 20.2299ZM26.7439 20.2299C26.0325 20.2299 25.5236 20.7438 25.5236 21.4597C25.5236 22.1756 26.0325 22.6896 26.7439 22.6896C27.4552 22.6896 27.9642 22.1756 27.9642 21.4597C27.9642 20.7438 27.4552 20.2299 26.7439 20.2299ZM40.5594 23.9255H18.2141V28.8571H41.7736V23.9255H40.5533H40.5594Z" fill="#3969CD"/>
</svg>
