<svg width="60" height="60" viewBox="0 0 60 60" fill="none" xmlns="http://www.w3.org/2000/svg">
<rect width="60" height="60" rx="30" fill="#EFF3FD"/>
<path d="M49.303 41.2601C49.303 41.2601 49.303 41.2285 49.295 41.2205C49.295 41.1968 49.2792 41.173 49.2713 41.1493C49.2713 41.1334 49.2634 41.1255 49.2554 41.1096C49.2475 41.0859 49.2317 41.0622 49.2159 41.0384C49.2159 41.0305 49.2079 41.0225 49.2 41.0146C49.1762 40.9829 49.1525 40.9592 49.1287 40.9275C49.1287 40.9275 49.1129 40.9116 49.105 40.9116C49.0812 40.8958 49.0654 40.872 49.0416 40.8562C49.0258 40.8483 49.0178 40.8404 49.002 40.8325C48.9862 40.8245 48.9782 40.8166 48.9624 40.8087L44.2894 38.4959V17.6178C44.2894 17.2772 44.0122 17 43.6716 17H16.473C16.1324 17 15.8552 17.2772 15.8552 17.6178V38.5039L11.3247 40.8166C11.3247 40.8166 11.301 40.8325 11.2851 40.8404C11.2693 40.8483 11.2614 40.8562 11.2455 40.8641C11.2218 40.88 11.2059 40.8958 11.1901 40.9116C11.1822 40.9196 11.1742 40.9275 11.1663 40.9354C11.1426 40.9592 11.1188 40.9909 11.095 41.0225C11.095 41.0225 11.095 41.0225 11.095 41.0305C11.0792 41.0542 11.0634 41.0859 11.0475 41.1176C11.0475 41.1334 11.0396 41.1413 11.0317 41.1572C11.0238 41.1809 11.0158 41.2047 11.0079 41.2285C11.0079 41.2443 11.0079 41.2601 11 41.2681C11 41.2918 11 41.3156 11 41.3394C11 41.3473 11 41.3552 11 41.3631V43.0422C11 43.3828 11.2772 43.66 11.6178 43.66H48.709C49.0495 43.66 49.3267 43.3828 49.3267 43.0422V41.3631C49.3267 41.3631 49.3267 41.3473 49.3267 41.3394C49.3267 41.3156 49.3267 41.2918 49.3267 41.2601H49.303ZM14.1761 40.7453L16.6235 39.5018H43.529L46.0477 40.7453H14.1761ZM17.0908 18.2356H43.0538V38.2663H17.0908V18.2356ZM48.0753 42.4245H12.2277V41.9809H48.0753V42.4245Z" fill="#3969CD"/>
<path d="M40.4071 19.5508H19.7428C19.4022 19.5508 19.125 19.828 19.125 20.1685V34.1005C19.125 34.4411 19.4022 34.7183 19.7428 34.7183H40.4071C40.7476 34.7183 41.0249 34.4411 41.0249 34.1005V20.1685C41.0249 19.828 40.7476 19.5508 40.4071 19.5508ZM39.7893 33.4827H20.3606V20.7943H39.7893V33.4827Z" fill="#3969CD"/>
<path d="M30.3228 35.0664C29.5862 35.0664 28.9922 35.6605 28.9922 36.3971C28.9922 37.1337 29.5862 37.7277 30.3228 37.7277C31.0594 37.7277 31.6534 37.1337 31.6534 36.3971C31.6534 35.6605 31.0594 35.0664 30.3228 35.0664ZM30.3228 36.9832C29.9981 36.9832 29.7367 36.7218 29.7367 36.3971C29.7367 36.0723 29.9981 35.8109 30.3228 35.8109C30.6475 35.8109 30.9089 36.0723 30.9089 36.3971C30.9089 36.7218 30.6475 36.9832 30.3228 36.9832Z" fill="#3969CD"/>
</svg>
