<svg width="32" height="31" viewBox="0 0 32 31" fill="none" xmlns="http://www.w3.org/2000/svg">
<path fill-rule="evenodd" clip-rule="evenodd" d="M14.898 22.9706C11.8935 27.8629 8.31294 29.9988 5.46797 30.309C3.57132 30.5129 1.96714 29.9279 0.992226 28.8023C-0.00041395 27.659 -0.319477 26.0017 0.362963 24.0962C1.18721 21.783 3.55359 19.0355 8.16227 16.4032C8.0116 16.2082 7.86094 16.0133 7.71027 15.8183C6.91261 14.7636 6.23903 13.7355 5.66295 12.734C4.65258 10.9792 3.97014 9.31293 3.55359 7.81511C3.075 6.08686 2.95092 4.58017 3.11931 3.39255C3.30543 2.06312 3.84606 1.09707 4.66145 0.627339C4.82098 0.529848 4.99824 0.458945 5.19322 0.405768C8.31294 -0.462792 10.4312 3.59639 12.5937 7.73535C13.5952 9.64972 14.6056 11.5907 15.6602 12.9467C17.2378 12.2465 18.8863 11.4134 20.455 10.5094C20.5082 10.1904 20.5614 9.86243 20.6146 9.52564C20.8716 7.93033 21.1464 6.2198 21.6604 4.67766C22.6176 1.83269 24.4079 0.432357 26.0475 0.0867053C26.9692 -0.108277 27.8555 0.0335282 28.5468 0.432357C29.2825 0.857773 29.7876 1.5668 29.9206 2.47968C30.1067 3.81797 29.4331 5.62599 27.2794 7.57582C25.8259 8.89638 23.9027 10.2347 21.8288 11.4666C21.3591 14.028 20.6943 16.0398 18.6913 16.2614C17.4062 16.4032 16.2806 15.8005 15.2614 14.7636C15.0398 14.8522 14.8183 14.9408 14.6056 15.0295C13.09 15.6233 11.734 16.2348 10.5198 16.8464C10.7857 17.1477 11.0604 17.449 11.3529 17.7504C12.3101 18.7607 13.3736 19.7445 14.4815 20.6751C17.3885 15.7119 21.3856 15.6587 24.8333 17.5377C27.049 18.743 29.0077 20.7903 30.2396 22.8111C31.5513 24.9647 32.0477 27.1716 31.2146 28.4921C30.0269 30.3799 26.2425 30.3356 18.4786 25.4433C17.2733 24.69 16.0768 23.848 14.9158 22.9617L14.898 22.9706ZM5.30843 28.8023C7.79003 28.5276 10.9718 26.5689 13.7016 22.0223C12.4785 21.0119 11.3086 19.9306 10.2362 18.805C9.84622 18.3974 9.48284 17.9897 9.12832 17.582C4.74121 20.0281 2.51664 22.5274 1.78102 24.6014C1.30243 25.9574 1.48855 27.083 2.12667 27.8186C2.78252 28.5719 3.91697 28.9619 5.29957 28.8023H5.30843ZM9.50943 15.6676C10.8566 14.9674 12.3633 14.285 14.0472 13.6291L14.2333 13.5582C13.1698 12.1225 12.2126 10.279 11.2554 8.45324C9.37648 4.85492 7.54187 1.33637 5.60091 1.877C5.53887 1.89473 5.47683 1.92132 5.41479 1.95677C5.01596 2.1872 4.73235 2.76329 4.61713 3.60526C4.48419 4.5979 4.59054 5.90074 5.01596 7.42515C5.39706 8.79889 6.03519 10.341 6.98351 11.9895C7.52415 12.9378 8.17114 13.9216 8.92448 14.9143C9.11946 15.1713 9.31444 15.4194 9.51829 15.6765L9.50943 15.6676ZM20.0739 12.4681C18.975 13.0619 17.8582 13.6203 16.7681 14.1166C17.3442 14.5863 17.9291 14.8256 18.5318 14.7636C19.3029 14.675 19.7549 13.7709 20.0828 12.4681H20.0739ZM22.1567 9.49019C23.7166 8.49755 25.1435 7.4606 26.2602 6.45023C27.9885 4.89037 28.5468 3.58753 28.4139 2.68352C28.3519 2.2581 28.1214 1.93018 27.7758 1.7352C27.3947 1.51362 26.8983 1.45158 26.3488 1.55794C25.1612 1.8061 23.8407 2.89623 23.0873 5.14739C22.6442 6.48568 22.3783 8.01896 22.1479 9.48133L22.1567 9.49019ZM15.6691 21.6412C16.8567 22.5629 18.0709 23.4137 19.2763 24.1759C26.1007 28.4656 29.1672 28.9087 29.9294 27.6945C30.4346 26.8968 29.9649 25.2927 28.9457 23.6087C27.8378 21.783 26.083 19.9484 24.1065 18.8671C21.3147 17.3427 18.0355 17.4313 15.6691 21.6412Z" fill="url(#paint0_linear_248_250)"/>
<defs>
<linearGradient id="paint0_linear_248_250" x1="-0.000413918" y1="15.1713" x2="31.6134" y2="15.1713" gradientUnits="userSpaceOnUse">
<stop offset="0.08" stop-color="#6010E4"/>
<stop offset="0.97" stop-color="#01EAAD"/>
</linearGradient>
</defs>
</svg>
